HIERARCHY
ROOT Hips
{
  OFFSET 0.0000 90.3781 0.0000
  CHANNELS 6 Xposition Yposition Zposition Yrotation Xrotation Zrotation
  JOINT Spine
  {
    OFFSET 0.0000 8.4838 -3.9483
    CHANNELS 3 Yrotation Xrotation Zrotation
    JOINT Spine1
    {
      OFFSET 0.0000 -7.5500 0.0000
      CHANNELS 3 Yrotation Xrotation Zrotation
      JOINT Spine2
      {
        OFFSET 0.0000 -7.5500 0.0000
        CHANNELS 3 Yrotation Xrotation Zrotation
        JOINT Spine3
        {
          OFFSET 0.0000 -12.7487 0.0000
          CHANNELS 3 Yrotation Xrotation Zrotation
          JOINT Neck
          {
            OFFSET 0.0000 -20.1503 0.0000
            CHANNELS 3 Yrotation Xrotation Zrotation
            JOINT Head
            {
              OFFSET 0.0000 -11.1009 0.0000
              CHANNELS 3 Yrotation Xrotation Zrotation
              JOINT HeadTip
              {
                OFFSET 0.0000 -16.8536 0.0000
                CHANNELS 3 Yrotation Xrotation Zrotation
                End Site
                {
                  OFFSET 0.0000 -8.4268 0.0000
                }
              }
            }
          }
          JOINT RightShoulder
          {
            OFFSET 7.0000 -12.3681 1.9038
            CHANNELS 3 Yrotation Xrotation Zrotation
            JOINT RightArm
            {
              OFFSET 0.0000 -13.6078 0.0000
              CHANNELS 3 Yrotation Xrotation Zrotation
              JOINT RightForeArm
              {
                OFFSET 0.0000 -27.1022 0.0000
                CHANNELS 3 Yrotation Xrotation Zrotation
                JOINT RightHand
                {
                  OFFSET 0.0000 -28.3000 0.0000
                  CHANNELS 3 Yrotation Xrotation Zrotation
                  JOINT RightHandThumb1
                  {
                    OFFSET -2.7849 -2.0780 0.1030
                    CHANNELS 3 Yrotation Xrotation Zrotation
                    JOINT RightFinger1Proximal
                    {
                      OFFSET 0.0000 -3.9891 0.0000
                      CHANNELS 3 Yrotation Xrotation Zrotation
                      JOINT RightFinger1Distal
                      {
                        OFFSET 0.0000 -3.0278 0.0000
                        CHANNELS 3 Yrotation Xrotation Zrotation
                        JOINT RightFinger1Tip
                        {
                          OFFSET 0.0000 -3.4590 0.0000
                          CHANNELS 3 Yrotation Xrotation Zrotation
                          End Site
                          {
                            OFFSET 0.0000 -1.7295 0.0000
                          }
                        }
                      }
                    }
                  }
                  JOINT RightHandEnd
                  {
                    OFFSET 1.4876 -2.4879 0.1030
                    CHANNELS 3 Yrotation Xrotation Zrotation
                    JOINT RightFinger5Proximal
                    {
                      OFFSET 0.0000 -4.7463 0.0000
                      CHANNELS 3 Yrotation Xrotation Zrotation
                      JOINT RightFinger5Medial
                      {
                        OFFSET 0.0000 -3.5000 0.0000
                        CHANNELS 3 Yrotation Xrotation Zrotation
                        JOINT RightFinger5Distal
                        {
                          OFFSET 0.0000 -2.2000 0.0000
                          CHANNELS 3 Yrotation Xrotation Zrotation
                          JOINT RightFinger5Tip
                          {
                            OFFSET 0.0000 -2.2409 0.0000
                            CHANNELS 3 Yrotation Xrotation Zrotation
                            End Site
                            {
                              OFFSET 0.0000 -1.1205 0.0000
                            }
                          }
                        }
                      }
                    }
                  }
                  JOINT RightFinger4Metacarpal
                  {
                    OFFSET 0.5475 -2.7430 0.1030
                    CHANNELS 3 Yrotation Xrotation Zrotation
                    JOINT RightFinger4Proximal
                    {
                      OFFSET 0.0000 -5.0325 0.0000
                      CHANNELS 3 Yrotation Xrotation Zrotation
                      JOINT RightFinger4Medial
                      {
                        OFFSET 0.0000 -4.3000 0.0000
                        CHANNELS 3 Yrotation Xrotation Zrotation
                        JOINT RightFinger4Distal
                        {
                          OFFSET 0.0000 -2.7732 0.0000
                          CHANNELS 3 Yrotation Xrotation Zrotation
                          JOINT RightFinger4Tip
                          {
                            OFFSET 0.0000 -2.7000 0.0000
                            CHANNELS 3 Yrotation Xrotation Zrotation
                            End Site
                            {
                              OFFSET 0.0000 -1.3500 0.0000
                            }
                          }
                        }
                      }
                    }
                  }
                  JOINT RightFinger3Metacarpal
                  {
                    OFFSET -0.5447 -2.7674 0.1030
                    CHANNELS 3 Yrotation Xrotation Zrotation
                    JOINT RightFinger3Proximal
                    {
                      OFFSET 0.0000 -5.3650 0.0000
                      CHANNELS 3 Yrotation Xrotation Zrotation
                      JOINT RightFinger3Medial
                      {
                        OFFSET 0.0000 -4.7000 0.0000
                        CHANNELS 3 Yrotation Xrotation Zrotation
                        JOINT RightFinger3Distal
                        {
                          OFFSET 0.0000 -3.1000 0.0000
                          CHANNELS 3 Yrotation Xrotation Zrotation
                          JOINT RightFinger3Tip
                          {
                            OFFSET 0.0000 -2.9982 0.0000
                            CHANNELS 3 Yrotation Xrotation Zrotation
                            End Site
                            {
                              OFFSET 0.0000 -1.4991 0.0000
                            }
                          }
                        }
                      }
                    }
                  }
                  JOINT RightFinger2Metacarpal
                  {
                    OFFSET -1.6034 -2.6456 0.1030
                    CHANNELS 3 Yrotation Xrotation Zrotation
                    JOINT RightFinger2Proximal
                    {
                      OFFSET 0.0000 -5.4138 0.0000
                      CHANNELS 3 Yrotation Xrotation Zrotation
                      JOINT RightFinger2Medial
                      {
                        OFFSET 0.0000 -4.5000 0.0000
                        CHANNELS 3 Yrotation Xrotation Zrotation
                        JOINT RightFinger2Distal
                        {
                          OFFSET 0.0000 -2.7685 0.0000
                          CHANNELS 3 Yrotation Xrotation Zrotation
                          JOINT RightFinger2Tip
                          {
                            OFFSET 0.0000 -2.7132 0.0000
                            CHANNELS 3 Yrotation Xrotation Zrotation
                            End Site
                            {
                              OFFSET 0.0000 -1.3566 0.0000
                            }
                          }
                        }
                      }
                    }
                  }
                }
              }
            }
          }
          JOINT LeftShoulder
          {
            OFFSET -7.0000 -12.3681 1.9038
            CHANNELS 3 Yrotation Xrotation Zrotation
            JOINT LeftArm
            {
              OFFSET 0.0000 -13.6078 0.0000
              CHANNELS 3 Yrotation Xrotation Zrotation
              JOINT LeftForeArm
              {
                OFFSET 0.0001 -27.1022 0.0000
                CHANNELS 3 Yrotation Xrotation Zrotation
                JOINT LeftHand
                {
                  OFFSET 0.0000 -28.3000 0.0000
                  CHANNELS 3 Yrotation Xrotation Zrotation
                  JOINT LeftHandEnd
                  {
                    OFFSET -1.4876 -2.4879 0.1030
                    CHANNELS 3 Yrotation Xrotation Zrotation
                    JOINT LeftFinger5Proximal
                    {
                      OFFSET 0.0000 -4.7463 0.0000
                      CHANNELS 3 Yrotation Xrotation Zrotation
                      JOINT LeftFinger5Medial
                      {
                        OFFSET 0.0000 -3.5000 0.0000
                        CHANNELS 3 Yrotation Xrotation Zrotation
                        JOINT LeftFinger5Distal
                        {
                          OFFSET 0.0000 -2.2000 0.0000
                          CHANNELS 3 Yrotation Xrotation Zrotation
                          JOINT LeftFinger5Tip
                          {
                            OFFSET 0.0000 -2.2409 0.0000
                            CHANNELS 3 Yrotation Xrotation Zrotation
                            End Site
                            {
                              OFFSET 0.0000 -1.1205 0.0000
                            }
                          }
                        }
                      }
                    }
                  }
                  JOINT LeftFinger4Metacarpal
                  {
                    OFFSET -0.5475 -2.7430 0.1030
                    CHANNELS 3 Yrotation Xrotation Zrotation
                    JOINT LeftFinger4Proximal
                    {
                      OFFSET 0.0000 -5.0325 0.0000
                      CHANNELS 3 Yrotation Xrotation Zrotation
                      JOINT LeftFinger4Medial
                      {
                        OFFSET 0.0000 -4.3000 0.0000
                        CHANNELS 3 Yrotation Xrotation Zrotation
                        JOINT LeftFinger4Distal
                        {
                          OFFSET 0.0000 -2.7732 0.0000
                          CHANNELS 3 Yrotation Xrotation Zrotation
                          JOINT LeftFinger4Tip
                          {
                            OFFSET 0.0000 -2.7000 0.0000
                            CHANNELS 3 Yrotation Xrotation Zrotation
                            End Site
                            {
                              OFFSET 0.0000 -1.3500 0.0000
                            }
                          }
                        }
                      }
                    }
                  }
                  JOINT LeftFinger3Metacarpal
                  {
                    OFFSET 0.5447 -2.7674 0.1030
                    CHANNELS 3 Yrotation Xrotation Zrotation
                    JOINT LeftFinger3Proximal
                    {
                      OFFSET 0.0000 -5.3650 0.0000
                      CHANNELS 3 Yrotation Xrotation Zrotation
                      JOINT LeftFinger3Medial
                      {
                        OFFSET 0.0000 -4.7000 0.0000
                        CHANNELS 3 Yrotation Xrotation Zrotation
                        JOINT LeftFinger3Distal
                        {
                          OFFSET 0.0000 -3.1000 0.0000
                          CHANNELS 3 Yrotation Xrotation Zrotation
                          JOINT LeftFinger3Tip
                          {
                            OFFSET 0.0000 -2.9982 0.0000
                            CHANNELS 3 Yrotation Xrotation Zrotation
                            End Site
                            {
                              OFFSET 0.0000 -1.4991 0.0000
                            }
                          }
                        }
                      }
                    }
                  }
                  JOINT LeftFinger2Metacarpal
                  {
                    OFFSET 1.6034 -2.6456 0.1030
                    CHANNELS 3 Yrotation Xrotation Zrotation
                    JOINT LeftFinger2Proximal
                    {
                      OFFSET 0.0000 -5.4138 0.0000
                      CHANNELS 3 Yrotation Xrotation Zrotation
                      JOINT LeftFinger2Medial
                      {
                        OFFSET 0.0000 -4.5000 0.0000
                        CHANNELS 3 Yrotation Xrotation Zrotation
                        JOINT LeftFinger2Distal
                        {
                          OFFSET 0.0000 -2.7685 0.0000
                          CHANNELS 3 Yrotation Xrotation Zrotation
                          JOINT LeftFinger2Tip
                          {
                            OFFSET 0.0000 -2.7131 0.0000
                            CHANNELS 3 Yrotation Xrotation Zrotation
                            End Site
                            {
                              OFFSET 0.0000 -1.3566 0.0000
                            }
                          }
                        }
                      }
                    }
                  }
                  JOINT LeftHandThumb1
                  {
                    OFFSET 2.7849 -2.0780 0.1030
                    CHANNELS 3 Yrotation Xrotation Zrotation
                    JOINT LeftFinger1Proximal
                    {
                      OFFSET 0.0000 -3.9891 0.0000
                      CHANNELS 3 Yrotation Xrotation Zrotation
                      JOINT LeftFinger1Distal
                      {
                        OFFSET 0.0000 -3.0278 0.0000
                        CHANNELS 3 Yrotation Xrotation Zrotation
                        JOINT LeftFinger1Tip
                        {
                          OFFSET 0.0000 -3.4590 0.0000
                          CHANNELS 3 Yrotation Xrotation Zrotation
                          End Site
                          {
                            OFFSET 0.0000 -1.7295 0.0000
                          }
                        }
                      }
                    }
                  }
                }
              }
            }
          }
        }
      }
    }
  }
  JOINT RightUpLeg
  {
    OFFSET -8.1000 0.0000 0.0000
    CHANNELS 3 Yrotation Xrotation Zrotation
    JOINT RightLeg
    {
      OFFSET 0.0000 -43.2000 0.0000
      CHANNELS 3 Yrotation Xrotation Zrotation
      JOINT RightFoot
      {
        OFFSET 0.0000 -43.3000 -0.0626
        CHANNELS 3 Yrotation Xrotation Zrotation
        JOINT RightToeBase
        {
          OFFSET 0.0000 -13.1694 6.2394
          CHANNELS 3 Yrotation Xrotation Zrotation
          JOINT RightToeTip
          {
            OFFSET 0.0000 -7.4457 1.2571
            CHANNELS 3 Yrotation Xrotation Zrotation
            End Site
            {
              OFFSET 0.0000 -3.7228 0.6286
            }
          }
        }
      }
    }
  }
  JOINT LeftUpLeg
  {
    OFFSET 8.1000 0.0000 0.0000
    CHANNELS 3 Yrotation Xrotation Zrotation
    JOINT LeftLeg
    {
      OFFSET 0.0000 -43.2000 0.0000
      CHANNELS 3 Yrotation Xrotation Zrotation
      JOINT LeftFoot
      {
        OFFSET 0.0000 -43.3000 -0.0626
        CHANNELS 3 Yrotation Xrotation Zrotation
        JOINT LeftToeBase
        {
          OFFSET 0.0000 -13.1694 6.2394
          CHANNELS 3 Yrotation Xrotation Zrotation
          JOINT LeftToeTip
          {
            OFFSET 0.0000 -7.4457 1.2571
            CHANNELS 3 Yrotation Xrotation Zrotation
            End Site
            {
              OFFSET 0.0000 -3.7228 0.6286
            }
          }
        }
      }
    }
  }
}
MOTION
Frames: 4
Frame Time: 0.033333
0.0000 90.3781 0.0000 0.0000 0.0000 0.0000 0.0000 0.0001 180.0000 0.0000 0.0000 0.0000 0.0000 0.0000 0.0000 0.0000 0.0000 0.0000 0.0000 0.0000 0.0000 0.0000 0.0000 0.0000 0.0000 0.0000 0.0000 0.0000 0.0000 90.0001 89.9999 0.0000 0.0000 0.0000 0.0000 0.0001 0.0000 0.0000 0.0000 40.8933 20.7046 -22.2077 -4.1067 -20.7048 22.2077 0.0000 0.0000 0.0000 0.0000 0.0003 0.0000 -0.0001 -0.0001 20.0000 0.0000 0.0001 -20.0000 0.0000 0.0000 0.0000 0.0000 0.0000 0.0000 0.0000 0.0000 0.0000 0.0000 -0.0001 10.0000 -0.0001 0.0000 -10.0000 0.0000 0.0000 0.0000 0.0000 0.0000 0.0000 0.0000 0.0000 0.0000 0.0000 -0.0001 -0.0001 -0.0001 0.0001 0.0000 0.0000 0.0000 0.0000 0.0000 0.0000 0.0000 0.0000 0.0000 0.0000 0.0000 -0.0001 -10.0001 -0.0001 0.0001 10.0000 0.0000 0.0000 0.0000 0.0000 0.0000 0.0000 0.0000 0.0000 0.0000 0.0000 0.0000 -90.0000 -89.9999 0.0000 0.0000 0.0001 0.0000 0.0001 0.0000 0.0000 0.0000 0.0001 -0.0001 -20.0000 0.0000 0.0001 20.0000 -0.0003 0.0000 -0.0001 0.0000 0.0000 0.0000 0.0000 0.0000 0.0000 0.0000 -0.0001 -9.9999 -0.0002 0.0001 9.9999 0.0000 0.0000 0.0000 0.0000 0.0000 0.0000 0.0000 0.0000 0.0000 -0.0001 0.0000 0.0000 0.0000 0.0000 0.0000 0.0000 0.0001 0.0000 0.0001 0.0000 0.0000 0.0000 0.0000 0.0000 0.0000 0.0000 10.0001 -0.0001 0.0000 -10.0001 0.0000 0.0000 0.0000 0.0000 0.0000 0.0000 0.0002 0.0000 0.0000 -40.8933 20.7047 22.2076 4.1067 -20.7047 -22.2077 0.0000 0.0000 0.0000 0.0000 0.0004 0.0000 90.0000 0.0000 0.0000 0.0000 0.0000 0.0000 -270.0000 90.0000 0.0000 0.0000 0.0000 0.0000 0.0000 0.0000 0.0000 -90.0000 0.0000 0.0000 0.0000 -0.0001 0.0000 270.0002 90.0000 0.0000 0.0000 0.0000 0.0000 0.0000 0.0000 0.0000 
-10.1709 90.2566 37.6686 52.2865 -0.6579 13.0464 -1.7690 1.9405 -175.6362 1.7724 -1.9445 4.3725 1.7741 -1.9466 4.3768 0.0000 0.0000 0.0000 5.8291 -3.2918 -8.3214 5.8291 -3.2918 -8.3214 0.0000 0.0000 0.0000 19.6498 0.6128 88.0654 86.1363 -57.2495 -40.6152 12.7367 9.4315 -4.1143 13.0212 71.4820 -4.6994 110.0588 40.9784 -44.8603 1.1640 -10.1623 -6.5690 0.0000 -6.8197 0.0000 0.0000 0.0003 0.0000 -6.1094 -4.3340 28.7041 -74.3820 -61.0632 75.3530 7.5948 -28.3903 -15.6650 0.0000 -19.5616 0.0000 0.0000 0.0000 0.0000 -2.7938 -2.3590 14.1978 -32.1199 -52.0861 28.3125 7.0171 -38.0344 -11.2975 0.0000 -25.7743 0.0000 0.0000 0.0000 0.0000 0.0000 0.0000 0.0000 -13.9091 -46.0372 16.1849 1.0625 -53.2035 -1.3268 0.0001 -35.6181 -0.0001 0.0000 0.0000 0.0000 1.2125 0.3039 -14.0690 20.6974 -53.0544 -14.4845 1.1524 -35.3730 -1.9902 0.0000 -23.6349 0.0000 0.0000 0.0000 0.0000 -11.5041 -3.0624 -90.6805 -166.0191 -63.7941 91.6642 -22.0206 3.4967 28.8750 -7.3138 -3.0194 -11.8531 6.1094 -4.3340 -28.7041 11.3305 -59.0717 -7.3429 0.0959 -21.3240 -0.2638 0.0000 -14.2253 -0.0001 0.0000 0.0000 0.0000 2.7938 -2.3590 -14.1978 13.1556 -54.4172 -5.6359 6.2794 -41.0979 -9.5029 0.0000 -27.7282 0.0000 0.0000 0.0000 0.0000 0.0000 0.0000 0.0000 11.1747 -42.8684 -13.4151 -8.5053 -55.1122 10.3322 0.0000 -37.1980 0.0000 0.0000 0.0000 0.0000 -1.2125 0.3039 14.0690 -6.1923 -37.0727 -3.8049 -2.1790 -32.3984 4.0619 0.0000 -21.6748 0.0000 0.0002 0.0000 0.0000 -86.5193 43.0367 43.9548 -7.3817 -31.5061 13.9232 0.0000 -21.5468 0.0000 0.0000 0.0004 0.0000 58.4178 10.8179 -13.5367 0.0612 -0.0064 24.0394 -100.0810 73.5621 -179.0602 0.0000 0.1243 0.0000 0.0000 0.0000 0.0000 -87.9015 -0.2302 4.5005 -0.1471 -0.0678 -23.2969 -79.0610 73.8353 -6.8094 0.0000 18.5667 -4.6066 0.0000 0.0000 0.0000 
-10.0661 90.2144 37.5508 52.3428 -0.5971 13.0878 -1.7872 1.9270 -175.6043 1.7907 -1.9310 4.4046 1.7924 -1.9330 4.4089 0.0000 0.0000 0.0000 5.8659 -3.2516 -8.3300 5.8659 -3.2516 -8.3300 0.0000 0.0000 0.0000 19.6379 0.5931 88.0315 86.2116 -56.9044 -40.7922 12.8408 9.3192 -3.9031 12.9089 71.2868 -4.6641 110.9186 41.1254 -44.9858 1.1994 -10.0240 -6.8586 0.0000 -6.7308 0.0000 0.0000 0.0003 0.0000 -6.1094 -4.3340 28.7041 -70.9863 -59.9464 70.9566 7.3939 -28.0619 -15.4218 0.0000 -19.3182 0.0000 0.0000 0.0000 0.0000 -2.7938 -2.3590 14.1978 -31.5827 -52.4311 27.8313 7.0053 -37.2786 -11.4681 0.0000 -25.2760 0.0000 0.0000 0.0000 0.0000 0.0000 0.0000 0.0000 -13.5777 -46.2009 15.5883 0.6488 -52.1325 -0.8219 0.0001 -34.8924 -0.0001 0.0000 0.0000 0.0000 1.2125 0.3039 -14.0690 20.7381 -52.9061 -14.4197 0.6061 -34.2627 -1.0764 0.0000 -22.8830 0.0000 0.0000 0.0000 0.0000 -11.5234 -3.1490 -90.6528 -166.0074 -63.7431 91.6552 -21.9278 3.4771 28.9869 -7.3193 -2.9960 -11.8499 6.1094 -4.3340 -28.7041 11.2935 -58.8826 -7.3292 0.0886 -21.4555 -0.2421 0.0001 -14.3131 -0.0004 0.0000 0.0000 0.0000 2.7938 -2.3590 -14.1978 13.1865 -54.4873 -5.6994 6.2249 -41.0138 -9.4368 0.0000 -27.6680 0.0000 0.0000 0.0000 0.0000 0.0000 0.0000 0.0000 11.2005 -42.8293 -13.5591 -8.6538 -55.1161 10.5108 0.0000 -37.2110 0.0000 0.0000 0.0000 0.0000 -1.2125 0.3039 14.0690 -6.1762 -37.0268 -3.8002 -2.1838 -32.4128 4.0693 0.0000 -21.6846 0.0000 0.0002 0.0000 0.0000 -86.2783 43.1168 43.8981 -7.5533 -31.6672 14.1752 0.0000 -21.6752 0.0000 0.0000 0.0004 0.0000 58.3585 10.9181 -13.6004 0.0606 -0.0060 23.9077 -99.7832 73.6869 -178.7743 0.0000 0.1235 0.0000 0.0000 0.0000 0.0000 -87.6193 -0.2907 4.4438 -0.1430 -0.0731 -23.1122 -79.4319 73.8688 -6.7119 0.0000 19.3250 -4.8260 0.0000 0.0000 0.0000 
-9.9445 90.2274 37.3846 52.4089 -0.5053 13.1363 -1.8210 1.9313 -175.5645 1.8246 -1.9354 4.4446 1.8262 -1.9373 4.4487 0.0000 0.0000 0.0000 5.9133 -3.1863 -8.3319 5.9133 -3.1863 -8.3319 0.0000 0.0000 0.0000 19.5670 0.6785 87.9840 86.1882 -56.8537 -40.8674 13.3322 9.4297 -3.7014 13.4204 71.2094 -4.2876 111.4131 41.2861 -44.9228 1.4821 -10.7069 -7.9282 0.0000 -7.2064 0.0000 0.0000 0.0003 0.0000 -6.1094 -4.3340 28.7041 -68.8321 -59.3145 68.4846 7.2187 -27.0892 -15.5437 0.0000 -18.6634 0.0000 0.0000 0.0000 0.0000 -2.7938 -2.3590 14.1978 -30.1261 -52.3945 26.6803 7.0717 -36.7669 -11.7091 0.0000 -24.9470 0.0000 0.0000 0.0000 0.0000 0.0000 0.0000 0.0000 -13.1350 -45.0422 15.4140 1.2994 -52.3340 -1.6413 0.0000 -35.0341 0.0000 0.0000 0.0000 0.0000 1.2125 0.3039 -14.0690 19.6681 -51.5276 -12.8401 0.7295 -33.8780 -1.3086 0.0000 -22.6268 0.0000 0.0000 0.0000 0.0000 -11.6191 -3.2196 -90.6697 -165.8637 -63.6675 91.5856 -21.9095 3.4793 29.1374 -7.2919 -2.9940 -11.8332 6.1094 -4.3340 -28.7041 11.3238 -58.9682 -7.4150 0.0711 -21.3584 -0.1952 0.0001 -14.2482 -0.0004 0.0000 0.0000 0.0000 2.7938 -2.3590 -14.1978 13.2007 -54.5008 -5.7750 6.1731 -41.0072 -9.3604 0.0000 -27.6593 0.0000 0.0000 0.0000 0.0000 0.0000 0.0000 0.0000 11.1810 -42.6941 -13.7324 -8.8707 -55.2232 10.7586 0.0000 -37.2975 0.0000 0.0000 0.0000 0.0000 -1.2125 0.3039 14.0690 -6.1898 -37.0820 -3.8972 -2.2352 -32.3541 4.1716 0.0000 -21.6475 0.0000 0.0002 0.0000 0.0000 -86.2925 43.1397 44.0387 -7.4668 -31.6762 14.0140 0.0000 -21.6691 0.0000 0.0000 0.0004 0.0000 58.3671 11.0253 -13.8142 0.0699 0.0119 23.9795 -99.3206 73.7549 -178.2583 0.0000 0.1286 0.0000 0.0000 0.0000 0.0000 -87.0349 -0.3764 4.5470 -0.1634 -0.0596 -23.1833 -80.4405 74.1149 -6.9364 0.0000 19.2966 -4.7673 0.0000 0.0000 0.0000 
